<svg width="358" height="51" fill="none" xmlns="http://www.w3.org/2000/svg"><rect width="358" height="50.15" rx="2" fill="#000"/><path d="M144.47 22.66c-.48-2.68-2.63-4.27-5.26-4.27-3.35 0-5.78 2.59-5.78 6.73 0 4.14 2.43 6.72 5.78 6.72 2.63 0 4.78-1.58 5.26-4.27h-1.58c-.38 1.82-1.94 2.79-3.68 2.79-2.38 0-4.25-1.84-4.25-5.24 0-3.4 1.87-5.24 4.25-5.24 1.74 0 3.3.97 3.68 2.78h1.59zm6.35 9.2c2.66 0 4.45-2.01 4.45-5.06 0-3.06-1.79-5.08-4.45-5.08s-4.45 2.02-4.45 5.08c0 3.05 1.8 5.07 4.45 5.07zm0-1.35c-2.02 0-2.94-1.74-2.94-3.7 0-1.97.92-3.74 2.94-3.74s2.94 1.77 2.94 3.73c0 1.97-.92 3.71-2.94 3.71zm7.47-8.67h-1.74l3.12 4.91-3.12 4.91h1.74l2.36-3.8 2.35 3.8h1.74l-3.17-4.9 3.17-4.92H163l-2.35 4.02-2.36-4.02zm8.6 13.5h1.5v-5.19h.14c.33.54.97 1.72 2.86 1.72 2.45 0 4.17-1.97 4.17-5.1 0-3.08-1.72-5.05-4.2-5.05-1.92 0-2.5 1.17-2.84 1.68h-.17v-1.56h-1.46v13.5zm1.48-8.59c0-2.2.97-3.68 2.81-3.68 1.92 0 2.87 1.61 2.87 3.68 0 2.1-.97 3.76-2.87 3.76-1.81 0-2.8-1.53-2.8-3.76zm12.38 5.14c1.71 0 2.6-.92 2.91-1.56h.08v1.33h1.5V25.2c0-3.12-2.37-3.47-3.62-3.47-1.49 0-3.18.5-3.94 2.3l1.43.5c.33-.7 1.12-1.47 2.56-1.47 1.38 0 2.07.73 2.07 2v.04c0 .73-.74.67-2.53.9-1.83.23-3.81.64-3.81 2.89 0 1.91 1.48 3.01 3.35 3.01zm.23-1.35c-1.2 0-2.07-.54-2.07-1.59 0-1.15 1.04-1.5 2.22-1.66.64-.08 2.35-.25 2.6-.56v1.38c0 1.23-.96 2.43-2.75 2.43zm8.53-8.7H188v9.82h1.5v-4.19h4.71v4.2h1.51v-9.83h-1.5v4.22h-4.71v-4.22zm10.48 7.6v-7.6h-1.51v9.82h1.76l4.7-7.6v7.6h1.51v-9.82h-1.73l-4.73 7.6zm7.9-6.19h3.24v8.41h1.5v-8.4h3.23v-1.42h-7.98v1.41zm11.68 2.15v-3.56h-1.51v9.82h4.12c2.3 0 3.55-1.4 3.55-3.17 0-1.79-1.25-3.1-3.55-3.1h-2.61zm0 1.4h2.6c1.2 0 2.05.73 2.05 1.77 0 .99-.85 1.69-2.04 1.69h-2.61V26.8z" fill="#fff"/></svg>